<svg width="8" height="10" viewBox="0 0 8 10" fill="none" xmlns="http://www.w3.org/2000/svg">
<path fill-rule="evenodd" clip-rule="evenodd" d="M0.616116 0.782132C0.850537 0.547712 1.16848 0.416016 1.5 0.416016H4.83333C4.94384 0.416016 5.04982 0.459914 5.12796 0.538054L7.62796 3.03805C7.7061 3.11619 7.75 3.22218 7.75 3.33268V8.33268C7.75 8.6642 7.6183 8.98214 7.38388 9.21657C7.14946 9.45099 6.83152 9.58268 6.5 9.58268H1.5C1.16848 9.58268 0.850537 9.45099 0.616116 9.21657C0.381696 8.98214 0.25 8.6642 0.25 8.33268V1.66602C0.25 1.33449 0.381696 1.01655 0.616116 0.782132ZM1.5 1.24935C1.38949 1.24935 1.28351 1.29325 1.20537 1.37139C1.12723 1.44953 1.08333 1.55551 1.08333 1.66602V8.33268C1.08333 8.44319 1.12723 8.54917 1.20537 8.62731C1.28351 8.70545 1.38949 8.74935 1.5 8.74935H6.5C6.61051 8.74935 6.71649 8.70545 6.79463 8.62731C6.87277 8.54917 6.91667 8.44319 6.91667 8.33268V3.50527L4.66074 1.24935H1.5Z" fill="#FF58B9"/>
<path fill-rule="evenodd" clip-rule="evenodd" d="M4.83333 0.416016C5.06345 0.416016 5.25 0.602564 5.25 0.832682V2.91602H7.33333C7.56345 2.91602 7.75 3.10256 7.75 3.33268C7.75 3.5628 7.56345 3.74935 7.33333 3.74935H4.83333C4.60321 3.74935 4.41667 3.5628 4.41667 3.33268V0.832682C4.41667 0.602564 4.60321 0.416016 4.83333 0.416016Z" fill="#FF58B9"/>
<path fill-rule="evenodd" clip-rule="evenodd" d="M1.91667 5.41602C1.91667 5.1859 2.10321 4.99935 2.33333 4.99935H5.66667C5.89679 4.99935 6.08333 5.1859 6.08333 5.41602C6.08333 5.64613 5.89679 5.83268 5.66667 5.83268H2.33333C2.10321 5.83268 1.91667 5.64613 1.91667 5.41602Z" fill="#FF58B9"/>
<path fill-rule="evenodd" clip-rule="evenodd" d="M1.91667 7.08268C1.91667 6.85256 2.10321 6.66602 2.33333 6.66602H5.66667C5.89679 6.66602 6.08333 6.85256 6.08333 7.08268C6.08333 7.3128 5.89679 7.49935 5.66667 7.49935H2.33333C2.10321 7.49935 1.91667 7.3128 1.91667 7.08268Z" fill="#FF58B9"/>
<path fill-rule="evenodd" clip-rule="evenodd" d="M1.91667 3.74935C1.91667 3.51923 2.10321 3.33268 2.33333 3.33268H3.16667C3.39679 3.33268 3.58333 3.51923 3.58333 3.74935C3.58333 3.97947 3.39679 4.16602 3.16667 4.16602H2.33333C2.10321 4.16602 1.91667 3.97947 1.91667 3.74935Z" fill="#FF58B9"/>
</svg>
