<svg width="22" height="16" viewBox="0 0 22 16" fill="none" xmlns="http://www.w3.org/2000/svg">
<path d="M21.1417 7.99963C21.1417 8.5863 20.6617 9.0663 20.075 9.0663H4.50167L9.32834 13.9196C9.755 14.3463 9.755 15.013 9.32834 15.4396C9.115 15.653 8.84833 15.7596 8.58166 15.7596C8.315 15.7596 8.02167 15.653 7.835 15.4396L1.195 8.77297C0.768337 8.3463 0.768337 7.67963 1.195 7.27963L7.835 0.612965C8.26167 0.186299 8.92833 0.186299 9.355 0.612965C9.78166 1.03963 9.78166 1.7063 9.355 2.13297L4.50167 6.93297H20.075C20.6617 6.93297 21.1417 7.41297 21.1417 7.99963Z" fill="#999999"/>
</svg>
