<svg width="24" height="25" viewBox="0 0 24 25" fill="none" xmlns="http://www.w3.org/2000/svg">
<path d="M17 17.4361V19.2309C17 19.4283 16.8293 19.5898 16.6207 19.5898H8.65517C8.44655 19.5898 8.27586 19.4283 8.27586 19.2309V16.8976C6.83448 15.7669 6 14.0798 6 12.3029V6.66721C6 6.05698 6.53103 5.57238 7.17586 5.59033C7.80172 5.60827 8.27586 6.12877 8.27586 6.70311V11.6927C8.27586 13.0747 9.47069 14.2054 10.931 14.2054H11.2155C10.0586 13.7926 9.22414 12.7516 9.22414 11.5132C9.22414 9.93377 10.5897 8.6415 12.2586 8.6415C13.9276 8.6415 15.2931 9.93377 15.2931 11.5132C15.2931 12.7516 14.4586 13.7926 13.3017 14.2054H13.5862C15.4638 14.2054 17 15.6592 17 17.4361Z" fill="#999999"/>
</svg>
