<svg width="24" height="25" viewBox="0 0 24 25" fill="none" xmlns="http://www.w3.org/2000/svg">
<path fill-rule="evenodd" clip-rule="evenodd" d="M8.69017 5.08008H5.33988C5.14566 5.08008 5 5.22728 5 5.42354V8.82545C5 9.02172 5.14566 9.16891 5.33988 9.16891H8.70636C8.90058 9.16891 9.04624 9.02172 9.04624 8.82545V5.42354C9.04624 5.22728 8.88439 5.08008 8.69017 5.08008ZM13.6751 5.08008H10.3086C10.1144 5.08008 9.96875 5.22728 9.96875 5.42354V8.82545C9.96875 9.02172 10.1144 9.16891 10.3086 9.16891H13.6751C13.8693 9.16891 14.015 9.02172 14.015 8.82545V5.42354C14.015 5.22728 13.8531 5.08008 13.6751 5.08008ZM5.33988 10.1012H8.69017C8.88439 10.1012 9.04624 10.2647 9.04624 10.4447V13.8466C9.04624 14.0428 8.90058 14.19 8.70636 14.19H5.33988C5.14566 14.19 5 14.0428 5 13.8466V10.4447C5 10.2484 5.14566 10.1012 5.33988 10.1012ZM13.6751 10.1012H10.3086C10.1144 10.1012 9.96875 10.2484 9.96875 10.4447V13.8466C9.96875 14.0428 10.1144 14.19 10.3086 14.19H13.6751C13.8693 14.19 14.015 14.0428 14.015 13.8466V10.4447C14.015 10.2647 13.8531 10.1012 13.6751 10.1012ZM15.2935 5.08008H18.6438C18.838 5.08008 18.9837 5.22728 18.9999 5.42354V8.82545C18.9999 9.02172 18.8542 9.16891 18.66 9.16891H15.2935C15.0993 9.16891 14.9536 9.02172 14.9536 8.82545V5.42354C14.9536 5.22728 15.0993 5.08008 15.2935 5.08008ZM18.6438 10.1012H15.2935C15.0993 10.1012 14.9536 10.2484 14.9536 10.4447V13.8466C14.9536 14.0428 15.0993 14.19 15.2935 14.19H18.66C18.8542 14.19 18.9999 14.0428 18.9999 13.8466V10.4447C18.9837 10.2647 18.838 10.1012 18.6438 10.1012ZM5.33988 15.1222H8.69017C8.88439 15.1222 9.04624 15.2858 9.04624 15.4821V18.8676C9.04624 19.0639 8.90058 19.2111 8.70636 19.2111H5.33988C5.14566 19.2111 5 19.0639 5 18.8676V15.4657C5 15.2694 5.14566 15.1222 5.33988 15.1222ZM13.6751 15.1222H10.3086C10.1144 15.1222 9.96875 15.2694 9.96875 15.4657V18.8676C9.96875 19.0639 10.1144 19.2111 10.3086 19.2111H13.6751C13.8693 19.2111 14.015 19.0639 14.015 18.8676V15.4821C14.015 15.2858 13.8531 15.1222 13.6751 15.1222ZM15.2935 15.1222H18.6438C18.838 15.1222 18.9837 15.2858 18.9999 15.4821V18.8676C18.9999 19.0639 18.8542 19.2111 18.66 19.2111H15.2935C15.0993 19.2111 14.9536 19.0639 14.9536 18.8676V15.4657C14.9536 15.2694 15.0993 15.1222 15.2935 15.1222Z" fill="#6FCF97"/>
</svg>
