<svg width="24" height="25" viewBox="0 0 24 25" fill="none" xmlns="http://www.w3.org/2000/svg">
<path fill-rule="evenodd" clip-rule="evenodd" d="M9.18848 7.93552C9.18848 9.5174 10.4655 10.7871 12.0103 10.7871C13.5551 10.7871 14.8321 9.49658 14.8321 7.93552C14.8321 6.35365 13.5551 5.08398 12.0103 5.08398C10.4655 5.08398 9.18848 6.35365 9.18848 7.93552ZM3.27686 10.9952C3.27686 9.97528 4.08015 9.16353 5.08942 9.16353C6.07809 9.16353 6.90199 9.97528 6.90199 10.9952C6.90199 12.0151 6.09869 12.8268 5.08942 12.8268C4.08015 12.8268 3.27686 12.0151 3.27686 10.9952ZM6.77858 17.9055L6.86097 17.9679C6.32544 18.0928 5.70752 18.1552 5.069 18.1552C3.85376 18.1552 2.72091 17.8847 2 17.4476V16.4693C2 14.7625 3.40062 13.368 5.0896 13.3472C5.89289 13.3472 6.6138 13.6594 7.14933 14.1589C6.90216 14.7625 6.77858 15.4078 6.77858 16.0946V17.9055ZM18.9312 12.8268C19.9405 12.8268 20.7438 12.0151 20.7438 10.9952C20.7438 9.97528 19.9405 9.16353 18.9312 9.16353C17.9219 9.16353 17.1187 9.97528 17.1187 10.9952C17.1187 11.9943 17.9425 12.8268 18.9312 12.8268ZM17.1595 17.9679L17.2418 17.9055V16.1363C17.2418 15.4494 17.0977 14.8042 16.8711 14.2006C17.4272 13.701 18.1481 13.3888 18.9308 13.3888C20.6198 13.3888 21.9998 14.7834 21.9998 16.4901V17.4684C21.2789 17.9055 20.1461 18.1761 18.9308 18.1761C18.2923 18.1761 17.695 18.0928 17.1595 17.9679ZM16.727 16.1155V17.6349C15.6354 18.3218 13.8846 18.7589 12.0102 18.7589C10.1359 18.7589 8.38512 18.3426 7.29346 17.6349V16.1155C7.29346 13.4929 9.41498 11.349 12.0102 11.349C14.6055 11.349 16.727 13.4929 16.727 16.1155Z" fill="#999999"/>
</svg>
