<svg width="24" height="25" viewBox="0 0 24 25" fill="none" xmlns="http://www.w3.org/2000/svg">
<path fill-rule="evenodd" clip-rule="evenodd" d="M16.5677 12.6097V18.5692C16.5677 18.9257 16.2652 19.2314 15.9124 19.2314H13.8458C13.4929 19.2314 13.2409 18.9257 13.2409 18.5692V14.6471L10.3174 14.5962V18.5692C10.3174 18.9257 10.015 19.2314 9.66216 19.2314H7.59555C7.24272 19.2314 6.94029 18.9257 6.94029 18.5692V12.6607H5.57935C4.97449 12.6607 4.72247 11.9985 5.12571 11.591L11.3759 5.27499C11.628 5.02031 12.0312 5.02031 12.2832 5.27499L18.4326 11.4891C18.7855 11.8966 18.5334 12.6097 17.979 12.6097H16.5677Z" fill="#999999"/>
</svg>
