<svg width="24" height="24" viewBox="0 0 24 24" fill="none" xmlns="http://www.w3.org/2000/svg">
<path d="M9.41568 17.7629C8.49549 16.8356 8 15.5992 8 14.2718C8 12.7262 8.67245 11.2898 9.85808 10.3625C10.5305 9.83516 11.3091 9.48968 12.1409 9.38059C13.5565 9.18057 14.9545 9.61696 15.9986 10.5807C17.0426 9.63515 18.4229 9.19876 19.8386 9.38059C20.6526 9.48968 21.4489 9.81698 22.1037 10.3443C23.3601 11.3262 24.0502 12.8172 23.9971 14.4173C23.9618 15.6719 23.4309 16.8901 22.5107 17.8357L19.4847 20.9449L17.6266 22.7451L16.7418 23.6542C16.5295 23.8724 16.2463 23.9997 15.9455 23.9997C15.6447 23.9997 15.3615 23.8724 15.1492 23.6542L9.41568 17.7629Z" fill="#DB324D"/>
</svg>

