<svg width="24" height="24" viewBox="0 0 24 24" fill="none" xmlns="http://www.w3.org/2000/svg">
<path d="M4 10.051C4 11.4086 4.49549 12.6731 5.41568 13.6215L11.1492 19.6467C11.3615 19.8698 11.6447 20 11.9455 20C12.2463 20 12.5295 19.8698 12.7418 19.6467L13.6266 18.7169C13.8743 18.4565 13.8743 18.0474 13.6266 17.8056C13.3789 17.5453 12.9895 17.5453 12.7595 17.8056L11.9455 18.6611L6.28278 12.7103C5.61033 12.0036 5.23872 11.0552 5.23872 10.051C5.23872 8.87948 5.7519 7.8009 6.6367 7.07564C7.13219 6.68512 7.69846 6.42478 8.31781 6.3318C9.45036 6.18303 10.5475 6.57355 11.3438 7.39178L12.0163 8.09843L12.6887 7.39178C13.485 6.55495 14.5822 6.16443 15.697 6.3318C16.2987 6.40618 16.8827 6.66653 17.3781 7.05705C18.316 7.8009 18.8292 8.93526 18.7938 10.1626C18.7584 11.1296 18.3691 12.0594 17.679 12.7847L14.6176 15.9646C14.3698 16.225 14.3698 16.6341 14.6176 16.8758C14.8653 17.1362 15.2546 17.1362 15.4847 16.8758L18.5107 13.6959C19.4309 12.7289 19.9618 11.4829 19.9971 10.1998C20.0502 8.56334 19.3601 7.03845 18.1037 6.03426C17.4489 5.49497 16.6526 5.16024 15.8386 5.04866C14.4229 4.8627 13.0426 5.30901 11.9986 6.27601C10.9545 5.29041 9.55653 4.8441 8.14086 5.04866C7.30914 5.16024 6.53052 5.51356 5.85808 6.05285C4.67245 7.00126 4 8.47036 4 10.051Z" fill="#999999"/>
</svg>
