<svg width="24" height="24" viewBox="0 0 24 24" fill="none" xmlns="http://www.w3.org/2000/svg">
<path fill-rule="evenodd" clip-rule="evenodd" d="M14.8812 8.4022C15.2285 8.71376 15.6863 8.90284 16.1827 8.90284C17.2649 8.90284 18.1341 8.03357 18.1341 6.95142C18.1341 5.86927 17.2649 5 16.1827 5C15.1006 5 14.2313 5.88701 14.2313 6.95142C14.2313 7.14329 14.2592 7.32847 14.311 7.5033L9.26508 10.6321C8.919 10.3178 8.45859 10.1269 7.95142 10.1269C6.86927 10.1269 6 10.9962 6 12.0783C6 13.1605 6.88701 14.0297 7.95142 14.0297C8.453 14.0297 8.91519 13.8367 9.26373 13.5193L14.308 16.6475C14.258 16.8195 14.2313 17.0008 14.2313 17.1875C14.2313 18.2697 15.1183 19.1389 16.1827 19.1389C17.2649 19.1389 18.1341 18.2697 18.1341 17.1875C18.1341 16.1054 17.2649 15.2361 16.1827 15.2361C15.677 15.2361 15.2177 15.4298 14.872 15.7449L9.82718 12.6164C9.8764 12.4456 9.90284 12.2651 9.90284 12.0783C9.90284 11.8899 9.8765 11.708 9.82728 11.536L14.8812 8.4022Z" fill="#828282"/>
</svg>
