<svg width="16" height="16" viewBox="0 0 16 16" fill="none" xmlns="http://www.w3.org/2000/svg">
<path fill-rule="evenodd" clip-rule="evenodd" d="M7.33203 2.66634C4.7547 2.66634 2.66536 4.75568 2.66536 7.33301C2.66536 9.91034 4.7547 11.9997 7.33203 11.9997C9.90936 11.9997 11.9987 9.91034 11.9987 7.33301C11.9987 4.75568 9.90936 2.66634 7.33203 2.66634ZM1.33203 7.33301C1.33203 4.0193 4.01832 1.33301 7.33203 1.33301C10.6457 1.33301 13.332 4.0193 13.332 7.33301C13.332 10.6467 10.6457 13.333 7.33203 13.333C4.01832 13.333 1.33203 10.6467 1.33203 7.33301Z" fill="#F2F2F2"/>
<path fill-rule="evenodd" clip-rule="evenodd" d="M10.6289 10.6289C10.8892 10.3685 11.3113 10.3685 11.5717 10.6289L14.4717 13.5289C14.732 13.7892 14.732 14.2113 14.4717 14.4717C14.2113 14.732 13.7892 14.732 13.5289 14.4717L10.6289 11.5717C10.3685 11.3113 10.3685 10.8892 10.6289 10.6289Z" fill="#F2F2F2"/>
</svg>
