<svg width="20" height="27" viewBox="0 0 24 27" fill="none" xmlns="http://www.w3.org/2000/svg">
<path fill-rule="evenodd" clip-rule="evenodd" d="M2.14074 13.3775C2.25003 13.5762 2.39492 13.8294 2.57441 14.1218C3.03543 14.8728 3.71817 15.8715 4.60454 16.8661C6.39552 18.8759 8.89951 20.7418 12 20.7418C15.1005 20.7418 17.6045 18.8759 19.3955 16.8661C20.2818 15.8715 20.9646 14.8728 21.4256 14.1218C21.6051 13.8294 21.75 13.5762 21.8593 13.3775C21.75 13.1788 21.6051 12.9256 21.4256 12.6332C20.9646 11.8822 20.2818 10.8836 19.3955 9.8889C17.6045 7.87911 15.1005 6.01325 12 6.01325C8.89951 6.01325 6.39552 7.87911 4.60454 9.8889C3.71817 10.8836 3.03543 11.8822 2.57441 12.6332C2.39492 12.9256 2.25003 13.1788 2.14074 13.3775ZM23 13.3775C23.8944 12.907 23.8943 12.9067 23.8941 12.9063L23.8925 12.9029L23.889 12.8957L23.8777 12.8724C23.8681 12.8528 23.8546 12.8255 23.8372 12.7909C23.8025 12.7218 23.752 12.6234 23.686 12.5001C23.5542 12.2536 23.3601 11.9063 23.1057 11.4917C22.5979 10.6646 21.8432 9.55925 20.8545 8.44984C18.8955 6.25148 15.8995 3.90918 12 3.90918C8.10049 3.90918 5.10448 6.25148 3.14546 8.44984C2.15683 9.55925 1.40207 10.6646 0.894336 11.4917C0.63985 11.9063 0.445792 12.2536 0.313971 12.5001C0.248023 12.6234 0.19754 12.7218 0.162753 12.7909C0.145357 12.8255 0.131875 12.8528 0.122338 12.8724L0.11099 12.8957L0.107539 12.9029L0.10637 12.9054C0.106186 12.9057 0.105573 12.907 1 13.3775L0.105573 12.907C-0.0351909 13.2032 -0.0351909 13.5518 0.105573 13.848L1 13.3775C0.105573 13.848 0.105389 13.8476 0.105573 13.848L0.107539 13.8521L0.11099 13.8593L0.122338 13.8827C0.131875 13.9022 0.145357 13.9295 0.162753 13.9641C0.19754 14.0333 0.248023 14.1316 0.313971 14.2549C0.445792 14.5015 0.63985 14.8488 0.894336 15.2633C1.40207 16.0904 2.15683 17.1958 3.14546 18.3052C5.10448 20.5036 8.10049 22.8459 12 22.8459C15.8995 22.8459 18.8955 20.5036 20.8545 18.3052C21.8432 17.1958 22.5979 16.0904 23.1057 15.2633C23.3601 14.8488 23.5542 14.5015 23.686 14.2549C23.752 14.1316 23.8025 14.0333 23.8372 13.9641C23.8546 13.9295 23.8681 13.9022 23.8777 13.8827L23.889 13.8593L23.8925 13.8521L23.8936 13.8497C23.8938 13.8493 23.8944 13.848 23 13.3775ZM23 13.3775L23.8944 13.848C24.0352 13.5518 24.0348 13.2025 23.8941 12.9063L23 13.3775Z" fill="#999999"/>
<path fill-rule="evenodd" clip-rule="evenodd" d="M12 11.273C10.8954 11.273 10 12.215 10 13.3771C10 14.5391 10.8954 15.4812 12 15.4812C13.1046 15.4812 14 14.5391 14 13.3771C14 12.215 13.1046 11.273 12 11.273ZM8 13.3771C8 11.053 9.79086 9.16895 12 9.16895C14.2091 9.16895 16 11.053 16 13.3771C16 15.7012 14.2091 17.5852 12 17.5852C9.79086 17.5852 8 15.7012 8 13.3771Z" fill="#999999"/>
</svg>
