<svg width="27" height="27" viewBox="0 0 27 27" fill="none" xmlns="http://www.w3.org/2000/svg">
<path fill-rule="evenodd" clip-rule="evenodd" d="M8.70239 8.02639C10.2797 7.36428 11.9736 7.01999 13.687 7.01758C14.6567 7.01999 15.6288 7.12833 16.5742 7.34502C18.1685 7.70858 19.702 8.39235 21.0338 9.33375C22.3754 10.2824 23.5201 11.4693 24.412 12.8441C24.5019 12.9838 24.5019 13.1908 24.412 13.3305C24.3051 13.4942 24.1981 13.6531 24.0839 13.812C23.1264 15.1483 21.9258 16.2919 20.5356 17.1803C19.1576 18.0567 17.5949 18.6707 15.9812 18.9548C14.2654 19.2581 12.4986 19.222 10.7998 18.8344C9.21033 18.4708 7.68409 17.7919 6.3547 16.8553C5.0083 15.9043 3.85633 14.7125 2.96197 13.3329C2.87205 13.1932 2.87205 12.9862 2.96197 12.8465C3.46019 12.0785 4.03861 11.3586 4.68993 10.7133C5.83704 9.57452 7.20774 8.65238 8.70239 8.02639ZM13.9956 16.5328C13.891 16.5472 13.789 16.552 13.6869 16.552C13.5848 16.552 13.4828 16.5472 13.3807 16.54C13.3369 16.5376 13.2908 16.5328 13.247 16.5279C13.2438 16.5279 13.2299 16.5259 13.2157 16.5236C13.2148 16.5234 13.2139 16.5233 13.213 16.5231L13.1874 16.5188C13.1759 16.5166 13.166 16.5146 13.162 16.5135C12.9675 16.4822 12.7755 16.434 12.586 16.3738C12.5021 16.3461 12.4204 16.3162 12.3368 16.2841C12.3275 16.2796 12.3182 16.2756 12.309 16.2716L12.3089 16.2715C12.2992 16.2673 12.2895 16.2631 12.2797 16.2583C12.2263 16.2342 12.1729 16.2077 12.1194 16.1813L12.1194 16.1812L12.1193 16.1812C11.9492 16.0946 11.784 15.9958 11.626 15.8851C11.6187 15.8802 11.6096 15.8749 11.6 15.8693C11.5884 15.8625 11.5759 15.8551 11.5643 15.8474C11.5633 15.844 11.5579 15.8372 11.5458 15.8273C11.5361 15.8189 11.5257 15.8105 11.5154 15.802C11.5051 15.7936 11.4948 15.7852 11.485 15.7767C11.4073 15.7117 11.3319 15.6467 11.259 15.5769C11.191 15.5119 11.1253 15.4421 11.0597 15.3723C11.0306 15.341 11.0038 15.3097 10.9771 15.276L10.9358 15.2278L10.9311 15.2223C10.9258 15.2151 10.9205 15.2082 10.9151 15.2013C10.9094 15.194 10.9037 15.1866 10.898 15.1788C10.8977 15.1783 10.8973 15.1778 10.8969 15.1772L10.8969 15.1772C10.8973 15.1778 10.8977 15.1783 10.898 15.1788C10.9085 15.1933 10.919 15.2078 10.9311 15.2223L10.9333 15.2254C10.9127 15.2152 10.8884 15.1748 10.8691 15.1427C10.8611 15.1294 10.854 15.1176 10.8483 15.1098C10.8216 15.0713 10.7948 15.0328 10.7681 14.9918C10.7146 14.9124 10.666 14.8305 10.6198 14.7463C10.5737 14.662 10.5299 14.5777 10.4886 14.4911C10.4837 14.4814 10.4795 14.4718 10.4752 14.4622C10.471 14.4525 10.4667 14.4429 10.4619 14.4333C10.4254 14.3538 10.4667 14.4549 10.4716 14.4598C10.4482 14.4366 10.4296 14.3703 10.4168 14.325C10.4136 14.3137 10.4108 14.3037 10.4084 14.296C10.3403 14.113 10.2893 13.9253 10.2504 13.7326L10.2504 13.7326L10.2504 13.7326C10.2407 13.6845 10.231 13.6363 10.2237 13.5882L10.2237 13.5882L10.2218 13.572C10.2269 13.5965 10.2345 13.6119 10.2172 13.5369C10.2058 13.4312 10.1967 13.3254 10.1921 13.2174C10.185 13.0209 10.194 12.8244 10.2168 12.6302C10.2347 12.5545 10.2269 12.5693 10.2218 12.5937L10.2237 12.577L10.2237 12.577C10.231 12.5288 10.2407 12.4807 10.2504 12.4325L10.2504 12.4325L10.2504 12.4325C10.2699 12.3314 10.2942 12.2303 10.3233 12.1315C10.3501 12.0376 10.3792 11.9462 10.4133 11.8547C10.4205 11.8342 10.4284 11.8143 10.4363 11.7945C10.4442 11.7746 10.4521 11.7547 10.4594 11.7343C10.4678 11.7121 10.4709 11.7031 10.4709 11.702L10.4729 11.6985C10.4783 11.6892 10.4832 11.6807 10.4862 11.6741C10.5664 11.5007 10.6612 11.3346 10.7657 11.1733C10.7924 11.1324 10.8191 11.0939 10.8458 11.0553L10.8459 11.0553C10.8515 11.0476 10.8585 11.0361 10.8662 11.0233L10.8662 11.0233L10.8662 11.0233C10.8744 11.0098 10.8835 10.9947 10.893 10.981C10.8957 10.9811 10.9027 10.9757 10.9139 10.9614C10.9191 10.9554 10.924 10.9494 10.9287 10.9436L10.9288 10.9435C10.9375 10.9329 10.9458 10.9226 10.9552 10.9133C10.9917 10.8675 11.0306 10.8242 11.0694 10.7809L11.0694 10.7808C11.1983 10.6412 11.3368 10.5088 11.4826 10.3884C11.4923 10.38 11.5027 10.3715 11.513 10.3631C11.5233 10.3547 11.5336 10.3463 11.5434 10.3378C11.5545 10.3287 11.56 10.3224 11.5615 10.319C11.5708 10.313 11.5805 10.3072 11.5897 10.3018C11.6031 10.2938 11.6154 10.2865 11.6236 10.2801C11.7111 10.2199 11.801 10.1621 11.8909 10.1067C11.9687 10.061 12.0489 10.0176 12.1291 9.97669C12.1728 9.95502 12.2166 9.93335 12.2603 9.91409C12.27 9.90927 12.2797 9.90506 12.2895 9.90085C12.2992 9.89663 12.3089 9.89242 12.3186 9.88761L12.334 9.88027C12.5121 9.81243 12.6926 9.7517 12.88 9.70703C12.9772 9.68295 13.0745 9.66369 13.1717 9.64925L13.1772 9.64865C13.1927 9.64695 13.2091 9.64516 13.224 9.64245C13.2746 9.6363 13.3252 9.63194 13.3758 9.62758L13.3758 9.62758C13.58 9.61313 13.7841 9.61313 13.9883 9.62758L13.9883 9.62758C14.0442 9.6324 14.1001 9.63721 14.156 9.64443C14.1645 9.64541 14.1709 9.64577 14.1755 9.6457L14.1791 9.64652C14.1859 9.64808 14.191 9.64925 14.1924 9.64925C14.2969 9.6661 14.399 9.68536 14.5011 9.71185C14.6899 9.75684 14.8694 9.82047 15.051 9.8867C15.0597 9.8909 15.0684 9.89467 15.077 9.89844C15.0868 9.90265 15.0965 9.90687 15.1062 9.91168C15.1451 9.92854 15.184 9.9478 15.2229 9.96706C15.3176 10.0152 15.4124 10.0658 15.5048 10.1211C15.5826 10.1669 15.6579 10.2175 15.7332 10.268C15.7411 10.2736 15.7528 10.2807 15.766 10.2886C15.7978 10.3078 15.8379 10.3318 15.8499 10.3523C15.8475 10.3475 15.76 10.2801 15.828 10.3354L15.828 10.3354C15.8523 10.3547 15.8766 10.374 15.9009 10.3956C16.0467 10.5184 16.1853 10.6484 16.3116 10.7905L16.4064 10.8988C16.4116 10.9048 16.4165 10.9108 16.4213 10.9167C16.43 10.9274 16.4384 10.9377 16.4477 10.947C16.463 10.965 16.4757 10.9733 16.4813 10.9744C16.5138 11.0127 16.5458 11.0684 16.5724 11.1147C16.5848 11.1364 16.5961 11.156 16.6057 11.1709C16.7102 11.3298 16.805 11.4983 16.8852 11.6717C16.8913 11.6837 16.8967 11.6958 16.9022 11.7078C16.9071 11.7186 16.912 11.7294 16.9174 11.7402C16.9238 11.7578 16.9306 11.7749 16.9375 11.7921C16.9454 11.8119 16.9533 11.8318 16.9605 11.8523C16.997 11.9486 17.0286 12.0449 17.0553 12.1436C17.0796 12.2327 17.1015 12.3218 17.1209 12.4132C17.1307 12.4614 17.1404 12.5095 17.1477 12.5577C17.1484 12.5625 17.1503 12.57 17.1525 12.5785L17.1552 12.5894C17.1547 12.5954 17.1552 12.6073 17.1574 12.6275C17.1817 12.8346 17.189 13.0416 17.1793 13.2487C17.1744 13.3426 17.1671 13.4389 17.1574 13.5328C17.1574 13.5352 17.1568 13.5382 17.1562 13.5412C17.1556 13.5442 17.155 13.5472 17.155 13.5497C17.1526 13.5667 17.1513 13.5772 17.1509 13.5813C17.1504 13.5835 17.1501 13.5851 17.1501 13.5858L17.1355 13.6663L17.1209 13.7471C17.0821 13.9373 17.0286 14.1251 16.9605 14.3081C16.952 14.3309 16.9429 14.3532 16.9338 14.3755C16.9254 14.396 16.9171 14.4164 16.9092 14.4374L16.9022 14.4525L16.9022 14.4526C16.8967 14.4646 16.8913 14.4766 16.8852 14.4886C16.8439 14.5753 16.8001 14.6596 16.754 14.7439C16.7152 14.8146 16.673 14.8819 16.6303 14.9501L16.6303 14.9502L16.6057 14.9894C16.5936 15.0075 16.582 15.025 16.5705 15.0424C16.5589 15.0599 16.5474 15.0773 16.5352 15.0954C16.5295 15.1036 16.5226 15.115 16.5149 15.1277L16.5149 15.1277L16.5148 15.1277C16.503 15.1471 16.4894 15.1695 16.4754 15.1882C16.469 15.1918 16.4592 15.1999 16.4477 15.2134C16.4392 15.223 16.4307 15.2332 16.4222 15.2434C16.4137 15.2537 16.4052 15.2639 16.3967 15.2735L16.3141 15.3699C16.246 15.4445 16.1756 15.5167 16.1051 15.5865C16.0395 15.6491 15.9738 15.7093 15.9034 15.7647C15.8936 15.7731 15.8833 15.7816 15.873 15.79C15.8637 15.7976 15.8543 15.8052 15.8455 15.8128L15.8325 15.8228L15.8324 15.8229C15.8195 15.8329 15.8042 15.8446 15.8013 15.8466L15.7624 15.8743L15.7235 15.9019C15.5655 16.0103 15.4003 16.109 15.2277 16.1933C15.1888 16.2125 15.15 16.2318 15.1111 16.2486C15.1014 16.2535 15.0916 16.2577 15.0819 16.2619L15.0819 16.2619C15.0736 16.2655 15.0653 16.2691 15.057 16.2731C15.0195 16.2862 14.9824 16.3 14.9453 16.3137L14.9453 16.3137C14.8889 16.3346 14.8327 16.3555 14.7757 16.3738C14.5886 16.434 14.3941 16.4798 14.1997 16.5111C14.1983 16.5111 14.1932 16.5122 14.1864 16.5138L14.1781 16.5157L14.1585 16.5179C14.1544 16.5182 14.1503 16.5183 14.1462 16.5183L13.9956 16.5328ZM14.1743 16.5165L14.1781 16.5157L14.1973 16.5135C14.1896 16.5146 14.1819 16.5157 14.1743 16.5165ZM14.1743 16.5165C14.169 16.5171 14.1637 16.5176 14.1585 16.5179L14.1341 16.5207C14.1396 16.5234 14.1582 16.52 14.1743 16.5165ZM10.4709 11.702L10.4693 11.7047C10.4703 11.7025 10.4709 11.7015 10.4709 11.702ZM10.4473 11.7608C10.4473 11.7578 10.4641 11.716 10.4693 11.7047C10.4578 11.7247 10.4457 11.7471 10.4473 11.7608ZM10.2176 12.6236L10.2168 12.6302L10.214 12.642C10.2153 12.6358 10.2165 12.6297 10.2176 12.6236ZM10.2176 12.6236C10.2193 12.6136 10.2206 12.6036 10.2218 12.5937C10.2205 12.6 10.2193 12.6069 10.2188 12.6131L10.2176 12.6236ZM10.2179 13.5436C10.2195 13.5531 10.2207 13.5625 10.2218 13.572C10.2205 13.5655 10.2193 13.5584 10.2188 13.5521L10.2179 13.5436ZM10.2179 13.5436L10.2172 13.5369L10.214 13.5232C10.2155 13.53 10.2168 13.5368 10.2179 13.5436ZM13.2157 16.5236C13.2708 16.5332 13.2286 16.5264 13.1937 16.52C13.2 16.521 13.2079 16.5223 13.2157 16.5236ZM13.1937 16.52L13.1874 16.5188C13.1752 16.5168 13.1815 16.5179 13.1937 16.52ZM17.1529 13.5726L17.152 13.5764C17.1534 13.5671 17.1561 13.5486 17.1598 13.5208C17.1633 13.5277 17.1568 13.5555 17.1529 13.5726L17.1529 13.5726ZM12.8062 12.9616C12.8021 13.0128 12.8 13.0634 12.8 13.1139C12.7951 13.5184 12.4694 13.8193 12.0733 13.8338C11.682 13.8506 11.3418 13.4895 11.3442 13.1115C11.3491 12.4421 11.614 11.7921 12.0927 11.3178C12.5715 10.8459 13.2301 10.5834 13.9033 10.5762C14.3116 10.5714 14.6154 10.9109 14.6324 11.2985C14.6494 11.691 14.2849 12.0184 13.9033 12.0208C13.8524 12.0208 13.8025 12.0227 13.7529 12.0266C13.6591 12.0448 13.5672 12.0701 13.4777 12.1014C13.4015 12.1376 13.3273 12.1784 13.2569 12.2255C13.2551 12.2272 13.2443 12.2344 13.2313 12.2431C13.2304 12.2436 13.2295 12.2442 13.2287 12.2448C13.1931 12.2757 13.1562 12.3084 13.1232 12.341C13.0925 12.3714 13.0646 12.4031 13.0363 12.4351C13.0317 12.4403 13.0272 12.4454 13.0226 12.4506C13.0171 12.4582 13.0117 12.4658 13.0065 12.4734C12.958 12.5446 12.9162 12.6198 12.879 12.6969C12.848 12.7837 12.8239 12.8717 12.8062 12.9616ZM12.7878 13.073C12.7894 13.0616 12.791 13.0502 12.7927 13.0389C12.7911 13.0502 12.7895 13.0615 12.7878 13.073ZM13.1791 12.2808C13.1791 12.2798 13.1826 12.2768 13.1881 12.2727C13.1825 12.2774 13.1791 12.2805 13.1791 12.2808ZM13.8297 12.0134C13.8404 12.0117 13.8512 12.0102 13.862 12.0088C13.8512 12.0104 13.8404 12.0119 13.8297 12.0134Z" fill="white"/>
</svg>
