<?xml version="1.0"?>
<svg xmlns="http://www.w3.org/2000/svg" xmlns:xlink="http://www.w3.org/1999/xlink" version="1.1" viewBox="0 0 192 192" width="24px" height="24px"><g fill="none" fill-rule="nonzero" stroke="none" stroke-width="1" stroke-linecap="butt" stroke-linejoin="miter" stroke-miterlimit="10" stroke-dasharray="" stroke-dashoffset="0" font-family="none" font-weight="none" font-size="none" text-anchor="none" style="mix-blend-mode: normal"><path d="M0,192v-192h192v192z" fill="none"/><g fill="#cccccc"><g id="surface1"><path d="M152.40625,124.79688l-74.8125,-28.79688l74.8125,-28.79688c6,-2.40625 9.1875,-9.20312 6.79687,-15.60937c-2.40625,-6 -9.20312,-9.1875 -15.60937,-6.79688l-104,40c-4.39063,1.60938 -7.59375,6.40625 -7.59375,11.20312c0,4.79688 3.20312,9.59375 7.59375,11.20312l104,40c1.60937,0.39063 2.8125,0.79688 4.40625,0.79688c4.79688,0 9.20312,-2.79688 11.20312,-7.59375c2.39063,-6.40625 -0.79687,-13.20313 -6.79687,-15.60938z"/><path d="M72,96c0,15.46875 -12.53125,28 -28,28c-15.46875,0 -28,-12.53125 -28,-28c0,-15.46875 12.53125,-28 28,-28c15.46875,0 28,12.53125 28,28z"/><path d="M176,56c0,15.46875 -12.53125,28 -28,28c-15.46875,0 -28,-12.53125 -28,-28c0,-15.46875 12.53125,-28 28,-28c15.46875,0 28,12.53125 28,28z"/><path d="M176,136c0,15.46875 -12.53125,28 -28,28c-15.46875,0 -28,-12.53125 -28,-28c0,-15.46875 12.53125,-28 28,-28c15.46875,0 28,12.53125 28,28z"/></g></g></g></svg>
