<svg width="20" height="20" viewBox="0 0 20 20" fill="none" xmlns="http://www.w3.org/2000/svg">
<path fill-rule="evenodd" clip-rule="evenodd" d="M6.19037 4.38111C6.84796 4.38111 7.38093 3.84815 7.38093 3.19056C7.38093 2.53352 6.84796 2 6.19037 2C5.53352 2 5 2.53352 5 3.19056C5 3.84815 5.53352 4.38111 6.19037 4.38111ZM9.76185 7.95241C10.4194 7.95241 10.9524 7.41981 10.9524 6.76185C10.9524 6.105 10.4194 5.57148 9.76185 5.57148C9.10482 5.57148 8.5713 6.105 8.5713 6.76185C8.5713 7.41981 9.10482 7.95241 9.76185 7.95241ZM13.3333 11.5237C13.9908 11.5237 14.5237 10.9908 14.5237 10.3333C14.5237 9.67591 13.9908 9.14296 13.3333 9.14296C12.6759 9.14296 12.143 9.67591 12.143 10.3333C12.143 10.9908 12.6759 11.5237 13.3333 11.5237ZM9.76185 15.0952C10.4194 15.0952 10.9524 14.5622 10.9524 13.9046C10.9524 13.2471 10.4194 12.7141 9.76185 12.7141C9.10433 12.7141 8.5713 13.2471 8.5713 13.9046C8.5713 14.5622 9.10433 15.0952 9.76185 15.0952ZM7.38093 17.4761C7.38093 18.1337 6.84796 18.6667 6.19037 18.6667C5.53352 18.6667 5 18.1337 5 17.4761C5 16.8183 5.53352 16.2856 6.19037 16.2856C6.84796 16.2857 7.38093 16.8185 7.38093 17.4761Z" fill="#333333"/>
</svg>
