<svg width="11" height="10" viewBox="0 0 11 10" fill="none" xmlns="http://www.w3.org/2000/svg">
<path d="M5.49495 0C2.43434 0 0 2.21 0 5C0 5.88 0.242424 6.7 0.686869 7.45C0.717172 7.55 0.757576 7.65 0.717172 7.76L0.20202 9.32C0.10101 9.63 0.373737 9.86 0.686869 9.76L2.30303 9.22C2.40404 9.19 2.54545 9.19 2.61616 9.25C3.47475 9.73 4.43434 10 5.50505 10C8.56566 10 11 7.79 11 5C11 2.21 8.52525 0 5.49495 0ZM8.14141 3.88L5.36364 6.6C5.26263 6.7 5.12121 6.77 4.9899 6.77C4.84848 6.77 4.71717 6.74 4.61616 6.6L3.23232 5.27C3.13131 5.17 3.13131 5 3.23232 4.9L3.60606 4.53C3.70707 4.43 3.87879 4.43 3.9798 4.53L4.93939 5.48L7.34343 3.13C7.44444 3.03 7.61616 3.03 7.71717 3.13L8.09091 3.5C8.24242 3.61 8.24242 3.78 8.14141 3.88Z" fill="#6FCF97"/>
</svg>
